<svg width="42" height="50" fill="none" xmlns="http://www.w3.org/2000/svg"><path d="M4.021 23.725C1.746 26.567.492 30.176.492 33.887.492 42.772 7.721 50 16.606 50c8.884 0 16.113-7.228 16.113-16.113 0-3.711-1.254-7.32-3.53-10.162L16.607 8.008 4.02 23.725zM29.79 33.887c0 7.27-5.914 13.183-13.183 13.183-7.27 0-13.184-5.914-13.184-13.183 0-3.048 1.025-6.006 2.886-8.33l10.298-12.861 10.297 12.86c1.861 2.325 2.886 5.283 2.886 8.33zm11.718-22.07c0-1.682-.553-3.26-1.597-4.566L34.184 0l-5.728 7.25a7.235 7.235 0 00-1.597 4.567c0 4.038 3.286 7.324 7.325 7.324 4.038 0 7.324-3.286 7.324-7.324zm-11.719 0c0-1.01.331-1.958.957-2.74l3.438-4.35 3.437 4.35a4.34 4.34 0 01.957 2.74 4.4 4.4 0 01-4.395 4.394 4.4 4.4 0 01-4.394-4.394z" fill="#fff"/></svg>